<svg xmlns="http://www.w3.org/2000/svg" viewBox="0 0 841.9 595.3">
  <g fill="#61DAFB">
    <path d="M666.3 296.5c0 27.6-22.4 50-50 50s-50-22.4-50-50 22.4-50 50-50 50 22.4 50 50z"/>
    <path d="M520.5 78.1c-13.2-7.6-27.5-14.3-42.7-20.1-15.2-5.8-30.9-10.6-47.1-14.3-16.2-3.7-32.7-6.3-49.3-7.8-16.6-1.5-33.2-2.3-49.8-2.3s-33.2.8-49.8 2.3c-16.6 1.5-33.1 4.1-49.3 7.8-16.2 3.7-31.9 8.5-47.1 14.3-15.2 5.8-29.5 12.5-42.7 20.1-13.2 7.6-25.6 15.9-37.1 24.9-11.5 9-22.1 18.7-31.7 29.1-9.6 10.4-18.2 21.4-25.7 33-7.5 11.6-14 23.7-19.4 36.2-5.4 12.5-9.8 25.4-13.1 38.6-3.3 13.2-5.6 26.6-6.9 40.2-1.3 13.6-2 27.3-2 41.1s.7 27.5 2 41.1c1.3 13.6 3.6 27 6.9 40.2 3.3 13.2 7.7 26.1 13.1 38.6 5.4 12.5 11.9 24.6 19.4 36.2 7.5 11.6 16.1 22.6 25.7 33 9.6 10.4 20.2 20.1 31.7 29.1 11.5 9 23.9 17.3 37.1 24.9 13.2 7.6 27.5 14.3 42.7 20.1 15.2 5.8 30.9 10.6 47.1 14.3 16.2 3.7 32.7 6.3 49.3 7.8 16.6 1.5 33.2 2.3 49.8 2.3s33.2-.8 49.8-2.3c16.6-1.5 33.1-4.1 49.3-7.8 16.2-3.7 31.9-8.5 47.1-14.3 15.2-5.8 29.5-12.5 42.7-20.1 13.2-7.6 25.6-15.9 37.1-24.9 11.5-9 22.1-18.7 31.7-29.1 9.6-10.4 18.2-21.4 25.7-33 7.5-11.6 14-23.7 19.4-36.2 5.4-12.5 9.8-25.4 13.1-38.6 3.3-13.2 5.6-26.6 6.9-40.2 1.3-13.6 2-27.3 2-41.1s-.7-27.5-2-41.1c-1.3-13.6-3.6-27-6.9-40.2-3.3-13.2-7.7-26.1-13.1-38.6-5.4-12.5-11.9-24.6-19.4-36.2-7.5-11.6-16.1-22.6-25.7-33-9.6-10.4-20.2-20.1-31.7-29.1-11.5-9-23.9-17.3-37.1-24.9z"/>
  </g>
</svg>
